<?xml version="1.0" encoding="UTF-8"?>
<svg width="11.32" height="14.545" version="1.1" viewBox="0 0 11.32 14.545" xmlns="http://www.w3.org/2000/svg">
 <title>Princeton University</title>
 <path d="m4.4115 3.212a0.08 0.08 0 0 0-0.072 0.046l-0.152 0.34h-0.012c-5e-3 0-0.011 0-0.015-0.015a1.574 1.574 0 0 0-0.061-0.151l-0.049-0.111c-0.018-0.041-0.032-0.069-0.036-0.076a0.074 0.074 0 0 0-0.065-0.037v-0.02h0.211v0.019c-0.017 0-0.059 0-0.059 0.028a0.064 0.064 0 0 0 0 0.022l0.1 0.238 0.083-0.2a0.114 0.114 0 0 0 0.012-0.051c0-0.023-0.016-0.032-0.058-0.037v-0.021h0.012 0.079 0.079v9e-3z"/>
 <path d="m4.8305 3.591h-0.2-0.18v-0.02a0.131 0.131 0 0 0 0.062-0.013c7e-3 -7e-3 0.011-0.025 0.013-0.061v-0.059-0.113-0.067c0-0.044-0.022-0.044-0.068-0.049v-0.021h0.347c9e-3 0 0.013 0 0.013 0.01v0.09h-0.02a0.206 0.206 0 0 0-0.061-0.069 0.066 0.066 0 0 0-0.035-0.01h-0.054a0.249 0.249 0 0 0-0.044 0c-5e-3 0 0 0-6e-3 0.015s0 0.027 0 0.08v0.053h0.013a0.183 0.183 0 0 0 0.046 0 0.076 0.076 0 0 0 0.041-0.029l9e-3 -0.033h0.013l0.011 5e-3a0.739 0.739 0 0 0 0 0.085v0.08a0.021 0.021 0 0 1-0.012 0h-0.011c0-0.034-9e-3 -0.057-0.038-0.069a0.1 0.1 0 0 0-0.039-0.01h-0.027v0.105a0.128 0.128 0 0 0 6e-3 0.048c0 7e-3 0.011 0.021 0.023 0.022s0.017 0 0.037 0h0.058a0.137 0.137 0 0 0 0.044-6e-3 0.233 0.233 0 0 0 0.063-0.086h0.025v0.108c-3e-3 0.012-0.01 0.014-0.029 0.014z"/>
 <path d="m5.3155 3.317h-0.01a0.29 0.29 0 0 0-0.03-0.059 0.1 0.1 0 0 0-0.074-0.039h-0.039v0.176 0.121c0 0.06 0.022 0.048 0.07 0.053v0.021h-0.218v-9e-3 -0.012c0.064-5e-3 0.07-0.017 0.072-0.037s0-0.066 0-0.119v-0.147a0.227 0.227 0 0 0 0-0.048 0.409 0.409 0 0 0-0.061 0 0.163 0.163 0 0 0-0.081 0.089h-0.02v-0.1c0-9e-3 0-0.011 0.013-0.011h0.188 0.187a0.034 0.034 0 0 1 0.019 0v0.117a0.011 0.011 0 0 1-0.016 4e-3z"/>
 <path d="m4.3925 3.944h-0.013a0.2 0.2 0 0 0-0.029-0.059 0.1 0.1 0 0 0-0.075-0.039h-0.039v0.176 0.121c0 0.059 0.023 0.048 0.071 0.053v0.021h-0.217v-0.021c0.064 0 0.07-0.017 0.073-0.036s0-0.067 0-0.12v-0.147a0.233 0.233 0 0 0 0-0.048 0.333 0.333 0 0 0-0.063 0 0.155 0.155 0 0 0-0.079 0.088h-0.021v-0.1c0-0.01 0-0.012 0.012-0.012h0.19 0.185 0.019v0.118z"/>
 <path d="m4.8495 4.218h-0.2-0.059-0.1-0.023v-0.02a0.1 0.1 0 0 0 0.059-0.013c8e-3 -7e-3 0.012-0.024 0.014-0.06v-0.06-0.113-0.062c0-0.045-0.021-0.045-0.067-0.049v-0.011l5e-3 -0.011h0.346c9e-3 0 0.013 0 0.013 0.01v0.09h-0.02a0.2 0.2 0 0 0-0.061-0.071 0.076 0.076 0 0 0-0.034-0.01h-0.055a0.269 0.269 0 0 0-0.044 0c-6e-3 0-5e-3 0-7e-3 0.015s0 0.028 0 0.081v0.052h0.014a0.172 0.172 0 0 0 0.046 0 0.087 0.087 0 0 0 0.042-0.028 0.284 0.284 0 0 0 8e-3 -0.034h0.024c0 0.017-5e-3 0.047-5e-3 0.086v0.079h-0.023c0-0.034-8e-3 -0.057-0.038-0.069a0.1 0.1 0 0 0-0.043-8e-3h-0.028v0.106a0.16 0.16 0 0 0 5e-3 0.047c0 7e-3 0.013 0.021 0.025 0.022a0.181 0.181 0 0 0 0.037 0h0.057a0.1 0.1 0 0 0 0.043-7e-3 0.219 0.219 0 0 0 0.065-0.085 0.022 0.022 0 0 1 0.013 0h0.01v0.107c2e-3 0.014-5e-3 0.016-0.019 0.016z"/>
 <path d="m5.1305 4.227a0.254 0.254 0 0 1-0.093-0.024h-0.014a0.1 0.1 0 0 0-0.031 0.014c-8e-3 0-0.02 0-0.022-0.011s7e-3 -0.034 7e-3 -0.049v-0.066a0.026 0.026 0 0 1 0.017-7e-3h7e-3c9e-3 0.015 0.026 0.058 0.037 0.077a0.127 0.127 0 0 0 0.089 0.042 0.092 0.092 0 0 0 0.065-0.02 0.058 0.058 0 0 0 0.022-0.049 0.057 0.057 0 0 0-0.011-0.036 0.1 0.1 0 0 0-0.042-0.029c-0.017-9e-3 -0.079-0.024-0.1-0.035a0.165 0.165 0 0 1-0.056-0.04 0.128 0.128 0 0 1-0.023-0.073 0.113 0.113 0 0 1 0.123-0.112 0.145 0.145 0 0 1 0.1 0.027 0.261 0.261 0 0 1 0.024-0.022 0.022 0.022 0 0 1 0.021 0.01 0.511 0.511 0 0 0-6e-3 0.055c0 0.01 6e-3 0.052 6e-3 0.059a0.038 0.038 0 0 1-0.016 6e-3h-7e-3c-0.011-0.02-0.022-0.053-0.033-0.07a0.092 0.092 0 0 0-0.08-0.035 0.067 0.067 0 0 0-0.073 0.06c0 0.033 0.028 0.049 0.049 0.06s0.037 0.014 0.061 0.021a0.618 0.618 0 0 1 0.064 0.025 0.108 0.108 0 0 1 0.066 0.105 0.13 0.13 0 0 1-0.151 0.117z"/>
 <path d="m4.5535 4.846h-0.2-0.183v-0.019a0.057 0.057 0 0 0 0.074-0.074v-0.06-0.113-0.062c0-0.045-0.022-0.045-0.067-0.05v-0.02h0.346c9e-3 0 0.013 0 0.013 0.01l5e-3 0.091h-0.019a0.187 0.187 0 0 0-0.061-0.069 0.072 0.072 0 0 0-0.035-0.011h-0.054a0.294 0.294 0 0 0-0.046 0v0.015 0.081 0.052h4e-3a0.175 0.175 0 0 0 0.045 0 0.069 0.069 0 0 0 0.041-0.029 0.143 0.143 0 0 0 0.01-0.033h0.022v0.085 0.079a0.011 0.011 0 0 1-0.01 0h-0.011c0-0.034-0.01-0.056-0.038-0.069a0.122 0.122 0 0 0-0.045-8e-3h-0.026v0.1a0.165 0.165 0 0 0 0 0.047c0 7e-3 0.013 0.021 0.025 0.022a0.181 0.181 0 0 0 0.037 0h0.057a0.1 0.1 0 0 0 0.043-7e-3 0.211 0.211 0 0 0 0.065-0.085h0.024v0.106c5e-3 0.019-1e-3 0.021-0.016 0.021z"/>
 <path d="m5.1365 4.465c-0.04 0-0.075 0.024-0.075 0.089v0.204 0.088a0.029 0.029 0 0 1-0.017 7e-3l-0.01-7e-3 -0.282-0.3v0.174a0.453 0.453 0 0 0 0 0.046 0.053 0.053 0 0 0 0.02 0.043 0.109 0.109 0 0 0 0.054 0.018v0.018h-0.174v-0.019a0.1 0.1 0 0 0 0.064-0.027 0.125 0.125 0 0 0 7e-3 -0.048v-0.144-0.058a0.077 0.077 0 0 0-0.014-0.044l-0.019-0.02a0.194 0.194 0 0 0-0.046-0.02v-0.019h0.115l0.012 8e-3 0.21 0.228c0.015 0.018 0.036 0.041 0.046 0.056v-0.165a0.4 0.4 0 0 0 0-0.045 0.1 0.1 0 0 0-0.011-0.044c-7e-3 -0.01-0.045-0.016-0.066-0.02v-0.02h0.182v0.01z"/>
 <path d="m6.4565 3.21a0.076 0.076 0 0 0-0.076 0.088v0.208 0.087a0.025 0.025 0 0 1-0.016 6e-3s-6e-3 0-0.01-6e-3l-0.284-0.3v0.173 0.045a0.052 0.052 0 0 0 0.021 0.043 0.108 0.108 0 0 0 0.053 0.018v0.019h-0.176v-0.019a0.1 0.1 0 0 0 0.062-0.027 0.116 0.116 0 0 0 7e-3 -0.049v-0.144-0.057a0.073 0.073 0 0 0-0.014-0.043 0.269 0.269 0 0 0-0.02-0.021 0.149 0.149 0 0 0-0.046-0.02v-0.02h0.012 0.084 0.019l0.013 8e-3 0.21 0.228c0.015 0.018 0.036 0.041 0.047 0.056v-0.165a0.319 0.319 0 0 0 0-0.045 0.109 0.109 0 0 0-0.012-0.044c-7e-3 -0.011-0.046-0.016-0.065-0.02v-0.021h0.183v0.01z"/>
 <path d="m6.8725 3.541a0.2 0.2 0 0 1-0.282 0 0.2 0.2 0 0 1-0.061-0.152 0.207 0.207 0 0 1 0.061-0.152 0.2 0.2 0 0 1 0.141-0.059 0.2 0.2 0 0 1 0.105 0.03 0.2 0.2 0 0 1 0.1 0.176 0.225 0.225 0 0 1-0.064 0.157zm-0.064-0.292a0.091 0.091 0 0 0-0.08-0.043 0.085 0.085 0 0 0-0.075 0.043 0.234 0.234 0 0 0-0.037 0.14 0.254 0.254 0 0 0 0.035 0.141 0.091 0.091 0 0 0 0.08 0.044 0.092 0.092 0 0 0 0.087-0.055 0.263 0.263 0 0 0 0.026-0.128 0.235 0.235 0 0 0-0.036-0.142z"/>
 <path d="m7.4415 3.212a0.08 0.08 0 0 0-0.071 0.046l-0.152 0.34h-0.012c-5e-3 0-0.011 0-0.015-0.015a1.226 1.226 0 0 0-0.062-0.151l-0.048-0.111a0.753 0.753 0 0 0-0.036-0.076 0.075 0.075 0 0 0-0.064-0.037v-0.02h0.212v0.019c-0.019 0-0.059 0-0.059 0.028a0.047 0.047 0 0 0 0 0.022l0.1 0.238 0.084-0.2a0.137 0.137 0 0 0 0.01-0.051c0-0.023-0.015-0.032-0.057-0.037v-0.021h0.011 0.08 0.079v9e-3z"/>
 <path d="m6.3305 3.944h-0.011a0.2 0.2 0 0 0-0.03-0.059 0.1 0.1 0 0 0-0.074-0.039h-0.039v0.176 0.121c0 0.059 0.023 0.048 0.07 0.053a0.024 0.024 0 0 1 0 0.013v8e-3h-0.216v-0.021c0.064 0 0.07-0.017 0.073-0.036s0-0.067 0-0.12v-0.147a0.233 0.233 0 0 0 0-0.048 0.328 0.328 0 0 0-0.063 0c-0.032 0.012-0.054 0.039-0.08 0.088h-0.02v-0.1c0-0.01 0-0.012 0.012-0.012h0.19 0.185 0.02v0.118z"/>
 <path d="m6.8065 4.217h-0.031-0.069-0.1v-0.019c0.039 0 0.054-8e-3 0.054-0.024a0.154 0.154 0 0 0-0.011-0.052c-0.013-0.029-0.019-0.042-0.022-0.05s0 0-0.011 0h-0.126a0.319 0.319 0 0 0-0.03 0.076 0.088 0.088 0 0 0 0 0.024c0 0.012 0.013 0.027 0.057 0.028v0.02h-0.173v-0.022a0.079 0.079 0 0 0 0.057-0.029 0.559 0.559 0 0 0 0.051-0.1c0.023-0.053 0.05-0.121 0.062-0.149s0.022-0.046 0.027-0.059l0.022-0.042 0.015-7e-3a0.028 0.028 0 0 1 0.018 8e-3l0.01 0.021c0.023 0.054 0.042 0.1 0.07 0.172 0.014 0.035 0.022 0.057 0.038 0.093l0.028 0.061c0.016 0.03 0.039 0.031 0.064 0.036v0.01zm-0.253-0.316a0.422 0.422 0 0 0-0.028 0.063c-0.022 0.052-0.03 0.07-0.034 0.078h0.12c-0.01-0.024-0.041-0.098-0.058-0.141z"/>
 <path d="m7.4305 4.217h-0.207v-0.02a0.3 0.3 0 0 0 0.04 0c0.016-8e-3 0.022-0.024 0.022-0.048v-0.291l-0.086 0.187c-8e-3 0.02-0.02 0.042-0.029 0.064-0.019 0.044-0.029 0.074-0.035 0.091a0.012 0.012 0 0 1-0.013 8e-3c-6e-3 0-9e-3 0-0.012-0.012s-0.019-0.039-0.023-0.05l-0.133-0.293v0.263c0 0.056 0.03 0.083 0.075 0.083v0.019h-0.02-0.078-0.083v-0.018a0.192 0.192 0 0 0 0.058-0.021c8e-3 -7e-3 0.016-0.024 0.016-0.063v-0.206c0-0.033-5e-3 -0.045-0.02-0.056a0.166 0.166 0 0 0-0.053-0.012v-0.021h0.168l9e-3 0.011 0.119 0.271 0.021-0.054c0.019-0.044 0.046-0.109 0.083-0.18l0.025-0.047h0.152v0.02c-0.018 0-0.046 0-0.06 0.026 0 7e-3 -7e-3 0.014-7e-3 0.048v0.192c0 0.074 0.018 0.082 0.027 0.088a0.181 0.181 0 0 0 0.041 0v0.011z"/>
 <path d="m6.3165 4.573h-0.011a0.238 0.238 0 0 0-0.03-0.06 0.1 0.1 0 0 0-0.075-0.039h-0.038v0.176 0.122c0 0.06 0.022 0.047 0.07 0.053v0.02h-0.22v-0.02c0.063-5e-3 0.07-0.017 0.073-0.037s0-0.067 0-0.12v-0.147a0.233 0.233 0 0 0 0-0.048 0.328 0.328 0 0 0-0.063 0c-0.033 0.012-0.054 0.04-0.079 0.088h-0.021v-0.1c0-0.01 0-0.012 0.012-0.012h0.19 0.186 0.018v0.118z"/>
 <path d="m6.8145 4.466a0.085 0.085 0 0 0-0.072 0.048l-0.151 0.344a0.034 0.034 0 0 1-0.013 0s-0.01 0-0.013-0.016-0.023-0.059-0.063-0.151l-0.049-0.111a0.817 0.817 0 0 0-0.036-0.077 0.077 0.077 0 0 0-0.063-0.037v-0.019h0.211v0.019c-0.02 0-0.06 0-0.06 0.028a0.066 0.066 0 0 0 0 0.023l0.1 0.237 0.084-0.2a0.12 0.12 0 0 0 0.011-0.052c0-0.021-0.016-0.031-0.057-0.037v-0.02h0.011 0.08 0.079v9e-3z"/>
 <path d="m7.4305 4.845h-0.2v-0.019a0.2 0.2 0 0 0 0.041 0 0.048 0.048 0 0 0 0.022-0.048v-0.288l-0.084 0.186c-0.01 0.021-0.02 0.043-0.031 0.065-0.019 0.044-0.029 0.074-0.035 0.091s-8e-3 8e-3 -0.013 8e-3 -8e-3 0-0.012-0.011c-0.01-0.025-0.017-0.04-0.021-0.051l-0.135-0.293v0.261c0 0.056 0.03 0.083 0.076 0.083v0.019h-0.021-0.076-0.084v-0.018a0.21 0.21 0 0 0 0.058-0.02c8e-3 -7e-3 0.015-0.025 0.015-0.064v-0.2c0-0.034 0-0.046-0.021-0.057a0.145 0.145 0 0 0-0.051-0.012v-0.021h0.169l6e-3 0.011 0.12 0.271 0.022-0.055c0.018-0.043 0.046-0.108 0.084-0.179 7e-3 -0.016 0.019-0.035 0.024-0.047h0.151v0.019a0.075 0.075 0 0 0-0.059 0.027 0.084 0.084 0 0 0-8e-3 0.048v0.193c0 0.074 0.019 0.081 0.028 0.087a0.13 0.13 0 0 0 0.04 0v0.01c2e-3 1e-3 0 1e-3 -5e-3 4e-3z"/>
 <path d="m11.27 2.338-0.017-0.19-0.182 0.056a4.646 4.646 0 0 1-1.36 0.2 4.589 4.589 0 0 1-3.92-2.186l-0.132-0.218-0.131 0.218a4.589 4.589 0 0 1-3.921 2.186 4.676 4.676 0 0 1-1.358-0.2l-0.181-0.056-0.017 0.189a13.388 13.388 0 0 0 0.233 3.918 13.62 13.62 0 0 0 1.458 3.871 13.971 13.971 0 0 0 3.823 4.349l0.091 0.07 0.092-0.07a14.017 14.017 0 0 0 2.611-2.526 13.7 13.7 0 0 0 1.216-1.814 13.553 13.553 0 0 0 1.416-3.692l0.039-0.185a13.436 13.436 0 0 0 0.24-3.92zm-3.254 1.032h0.226v0.444h-0.226zm0 1.162h0.226v0.443h-0.226zm-2.3-1.633a0.424 0.424 0 0 1 0.385-0.161l0.438 0.062 0.577 0.077a1.119 1.119 0 0 0 0.5-0.084v2.412a1.378 1.378 0 0 1-0.5 0.075l-0.557-0.074-0.458-0.064a0.572 0.572 0 0 0-0.385 0.121zm-1.975-0.1a1.055 1.055 0 0 0 0.481 0.08l0.578-0.078 0.437-0.062a0.418 0.418 0 0 1 0.384 0.161v2.365a0.575 0.575 0 0 0-0.388-0.122l-0.459 0.064-0.552 0.074c-0.405 0-0.489-0.1-0.49-0.1s0.01-2.223 0.011-2.383zm-0.33 0.294 0.236-0.05v2.168c0.023 0.048 0.122 0.165 0.575 0.165l0.573-0.077 0.438-0.061a0.426 0.426 0 0 1 0.389 0.162l0.014-8e-3h0.067l0.013 7e-3a0.421 0.421 0 0 1 0.385-0.161l0.438 0.061 0.577 0.077c0.459 0 0.573-0.122 0.585-0.134l9e-3 -2.21 0.209 0.058v2.395a6.446 6.446 0 0 1-0.83 0.064 10.908 10.908 0 0 1-1.109-0.077l-0.052-8e-3v0.163a0.845 0.845 0 0 1-0.269 0.048 0.733 0.733 0 0 1-0.257-0.048v-0.163l-0.053 8e-3a10.9 10.9 0 0 1-1.106 0.077 6.452 6.452 0 0 1-0.832-0.064zm-0.317 0.278h0.223v0.444h-0.223zm0 1.162h0.223v0.443h-0.223zm2.561 9.619a13.712 13.712 0 0 1-2.456-2.4l-9e-3 -0.011 2.466-2.4 2.47 2.4-0.011 0.013a13.775 13.775 0 0 1-2.458 2.397zm5.033-7.774a13.309 13.309 0 0 1-1.358 3.57l-3.668-3.529-3.665 3.522a13.285 13.285 0 0 1-1.4-3.716h10.124z"/>
</svg>
