<?xml version="1.0" encoding="UTF-8" standalone="no"?>
<!-- Created with Inkscape (http://www.inkscape.org/) -->

<svg
   xmlns:dc="http://purl.org/dc/elements/1.1/"
   xmlns:cc="http://creativecommons.org/ns#"
   xmlns:rdf="http://www.w3.org/1999/02/22-rdf-syntax-ns#"
   xmlns:svg="http://www.w3.org/2000/svg"
   xmlns="http://www.w3.org/2000/svg"
   xmlns:sodipodi="http://sodipodi.sourceforge.net/DTD/sodipodi-0.dtd"
   xmlns:inkscape="http://www.inkscape.org/namespaces/inkscape"
   version="1.1"
   id="svg6386"
   width="256"
   height="256"
   viewBox="0 0 256 255.99999"
   sodipodi:docname="miniSquare_light_PUOLOGO.svg"
   inkscape:version="0.92.2 5c3e80d, 2017-08-06"
   inkscape:export-filename="/Users/rbova/iCloud Drive (Archive)/Documents/PUO/media/PUO_LOGO_onWhite2.png"
   inkscape:export-xdpi="96"
   inkscape:export-ydpi="96">
  <metadata
     id="metadata6392">
    <rdf:RDF>
      <cc:Work
         rdf:about="">
        <dc:format>image/svg+xml</dc:format>
        <dc:type
           rdf:resource="http://purl.org/dc/dcmitype/StillImage" />
        <dc:title />
      </cc:Work>
    </rdf:RDF>
  </metadata>
  <defs
     id="defs6390" />
  <sodipodi:namedview
     pagecolor="#eceaff"
     bordercolor="#666666"
     borderopacity="1"
     objecttolerance="10"
     gridtolerance="10"
     guidetolerance="10"
     inkscape:pageopacity="0"
     inkscape:pageshadow="2"
     inkscape:window-width="1486"
     inkscape:window-height="852"
     id="namedview6388"
     showgrid="true"
     inkscape:zoom="3.1942372"
     inkscape:cx="102.96272"
     inkscape:cy="117.58196"
     inkscape:window-x="114"
     inkscape:window-y="22"
     inkscape:window-maximized="0"
     inkscape:current-layer="g27"
     fit-margin-top="0"
     fit-margin-left="0"
     fit-margin-right="0"
     fit-margin-bottom="0">
    <inkscape:grid
       type="xygrid"
       id="grid6989"
       spacingx="200"
       spacingy="200"
       originx="0"
       originy="-682.49998" />
  </sodipodi:namedview>
  <g
     id="g27"
     transform="matrix(0.08533333,0,0,0.08510799,0,162.25356)">
    <path
       sodipodi:nodetypes="ccccccccccccccccc"
       inkscape:connector-curvature="0"
       id="path1155"
       d="m 913.66211,-445.36487 c -54.10834,47.38003 -108.05664,107.92831 -144.15234,160.45313 -42.07411,62.4846 -77.94861,137.15588 -99.89649,207.74414 L 249.06445,-187.24573 c -32.04587,104.4565 -48.83647,213.30609 -49.05273,323.74609 360.64779,0 721.29559,0 1081.94338,0 0.1875,-17.7692 2.8644,-34.9831 7.7265,-51.3633 5.4343,-16.9743 16.6557,-40.159 26.4512,-54.9394 9.7454,-14.0828 21.3378,-26.9677 34.4551,-38.3711 12.6117,-10.555 29.6365,-22.3471 44.6641,-29.9707 14.7432,-7.1506 34.0736,-14.5607 50.5585,-18.4629 16.147,-3.5285 36.8797,-6.29884 54.1895,-6.29884 v -94.59375 c -25.774,0 -54.7314,3.69642 -78.7422,8.98242 -24.9055,5.78997 -52.2501,16.02538 -74.4531,26.82812 -22.7418,11.40873 -46.8619,27.89343 -65.8555,43.83594 z"
       style="opacity:1;fill:#cacaca;fill-opacity:1;fill-rule:nonzero;stroke:#cacaca;stroke-width:1;stroke-miterlimit:4;stroke-dasharray:none;stroke-opacity:1" />
    <path
       sodipodi:nodetypes="cccccc"
       inkscape:connector-curvature="0"
       id="path1195"
       d="m 1496.5371,-1059.9586 c -215.2671,5.3211 -426.7847,55.3358 -606.63476,142.39061 l 369.05076,636.41015 c 156.7256,-69.72803 330.6787,-68.72245 475.6407,-1.02343 l 367.4824,-637.29102 c -186.4647,-91.58481 -394.3183,-139.80721 -605.5391,-140.48631 z"
       style="opacity:1;fill:#f58025;fill-opacity:1;fill-rule:nonzero;stroke:#f58025;stroke-width:1;stroke-miterlimit:4;stroke-dasharray:none;stroke-opacity:1" />
    <path
       sodipodi:nodetypes="ccccccccc"
       inkscape:connector-curvature="0"
       id="path1235"
       d="m 2598.9238,-493.5719 -513.1308,47.74414 -436.5176,437.53512 c 13.1428,11.4027 26.9997,27.6167 36.7656,41.7051 9.6547,14.543 18.5605,34.1256 23.9961,50.8008 5.0399,16.6553 7.8267,34.1821 8.0176,52.2871 360.0814,0 720.1627,0 1080.2441,0 -1.1774,-111.728 -19.2778,-222.75505 -53.7754,-329.85546 -33.3646,-104.38779 -83.0739,-207.94179 -145.5996,-300.2168 z"
       style="opacity:1;fill:#777777;fill-opacity:1;fill-rule:nonzero;stroke:#777777;stroke-width:1;stroke-miterlimit:4;stroke-dasharray:none;stroke-opacity:1" />
    <path
       inkscape:connector-curvature="0"
       id="path1281"
       d="m 798.31636,-1010.2988 a 1298,1198 0 0 0 -269.51758,174.87304 l 291.59961,291.73243 C 874.98714,-590.18914 935.4009,-629.67478 1000,-661.49997 Z"
       style="opacity:1;fill:#f2f2f2;fill-opacity:1;fill-rule:nonzero;stroke:#f2f2f2;stroke-width:1;stroke-miterlimit:4;stroke-dasharray:none;stroke-opacity:1" />
    <path
       inkscape:connector-curvature="0"
       id="path1205"
       d="m 2102.5979,-915.66993 -198.6357,348.64148 c 74.833,36.81391 147.7378,83.42905 208.8054,139.78825 46.2135,42.65044 84.6712,92.04238 118.9121,142.3125 l 363.7917,-207.32399 c -120.018,-176.4566 -293.7105,-325.30878 -492.8735,-423.41824 z"
       style="opacity:1;fill:#f2f2f2;fill-opacity:1;fill-rule:nonzero;stroke:#f2f2f2;stroke-width:1;stroke-miterlimit:4;stroke-dasharray:none;stroke-opacity:1"
       sodipodi:nodetypes="ccsccc" />
    <path
       inkscape:connector-curvature="0"
       id="conductor"
       d="M 1617.0159,138.49996 A 117.01589,117.01589 0 0 1 1500,255.51586 117.01589,117.01589 0 0 1 1382.9841,138.49996 117.01589,117.01589 0 0 1 1500,21.48406 a 117.01589,117.01589 0 0 1 117.0159,117.0159 z"
       style="opacity:1;fill:#f2f2f2;fill-opacity:1;fill-rule:nonzero;stroke:none;stroke-width:4;stroke-miterlimit:4;stroke-dasharray:none;stroke-opacity:1" />
    <path
       inkscape:connector-curvature="0"
       id="lineStage"
       d="M 0,138.50006 H 3000"
       style="fill:none;fill-rule:evenodd;stroke:#f2f2f2;stroke-width:16;stroke-linecap:butt;stroke-linejoin:miter;stroke-miterlimit:4;stroke-dasharray:none;stroke-opacity:1" />
    <path
       sodipodi:nodetypes="cccccc"
       inkscape:connector-curvature="0"
       id="path1585"
       d="m 1499.0876,-659.81284 c -297.7173,0.39115 -571.04139,146.5632 -728.80934,379.5747 l 295.22434,167.692 c 93.1922,-137.39911 257.8606,-221.72372 433.5584,-221.95383 v 0 z"
       style="opacity:1;fill:none;fill-opacity:1;fill-rule:nonzero;stroke:#f2f2f2;stroke-width:8;stroke-linejoin:round;stroke-miterlimit:4;stroke-dasharray:none;stroke-opacity:1" />
    <path
       sodipodi:nodetypes="ccccc"
       inkscape:connector-curvature="0"
       id="path1303"
       d="m 1499.0876,-659.81284 -0.027,325.31287 c 175.6584,0.17566 341.9873,84.32882 435.241,221.64946 l 297.3781,-172.07719 c -157.8411,-232.70084 -435.1214,-374.49602 -732.5921,-374.88514 z"
       style="opacity:1;fill:none;fill-opacity:1;fill-rule:nonzero;stroke:#f2f2f2;stroke-width:8;stroke-linejoin:round;stroke-miterlimit:4;stroke-dasharray:none;stroke-opacity:1" />
    <path
       sodipodi:nodetypes="cccc"
       inkscape:connector-curvature="0"
       id="path1606"
       d="m 2231.6797,-284.9277 c 120.8459,-69.08742 243.419,-135.11037 363.681,-207.49002 -120.1506,-177.73052 -292.5351,-324.56307 -492.7628,-423.25221 l -200.4696,350.07427"
       style="fill:none;fill-rule:evenodd;stroke:#f2f2f2;stroke-width:8;stroke-linecap:butt;stroke-linejoin:round;stroke-miterlimit:4;stroke-dasharray:none;stroke-opacity:1" />
  </g>
</svg>
