<?xml version="1.0" encoding="UTF-8" standalone="no"?>
<!-- Created with Inkscape (http://www.inkscape.org/) -->

<svg
   xmlns:dc="http://purl.org/dc/elements/1.1/"
   xmlns:cc="http://creativecommons.org/ns#"
   xmlns:rdf="http://www.w3.org/1999/02/22-rdf-syntax-ns#"
   xmlns:svg="http://www.w3.org/2000/svg"
   xmlns="http://www.w3.org/2000/svg"
   xmlns:sodipodi="http://sodipodi.sourceforge.net/DTD/sodipodi-0.dtd"
   xmlns:inkscape="http://www.inkscape.org/namespaces/inkscape"
   version="1.1"
   id="svg6386"
   width="3000"
   height="1316.6285"
   viewBox="0 0 3000 1316.6285"
   sodipodi:docname="smallPUO_LOGO_onWhite.svg"
   inkscape:version="0.92.2 5c3e80d, 2017-08-06"
   inkscape:export-filename="/Users/rbova/iCloud Drive (Archive)/Documents/PUO/media/PUO_LOGO_onWhite2.png"
   inkscape:export-xdpi="96"
   inkscape:export-ydpi="96">
  <metadata
     id="metadata6392">
    <rdf:RDF>
      <cc:Work
         rdf:about="">
        <dc:format>image/svg+xml</dc:format>
        <dc:type
           rdf:resource="http://purl.org/dc/dcmitype/StillImage" />
        <dc:title></dc:title>
      </cc:Work>
    </rdf:RDF>
  </metadata>
  <defs
     id="defs6390" />
  <sodipodi:namedview
     pagecolor="#eceaff"
     bordercolor="#666666"
     borderopacity="1"
     objecttolerance="10"
     gridtolerance="10"
     guidetolerance="10"
     inkscape:pageopacity="0"
     inkscape:pageshadow="2"
     inkscape:window-width="1486"
     inkscape:window-height="852"
     id="namedview6388"
     showgrid="true"
     inkscape:zoom="0.19963982"
     inkscape:cx="1601.8253"
     inkscape:cy="57.61833"
     inkscape:window-x="114"
     inkscape:window-y="22"
     inkscape:window-maximized="0"
     inkscape:current-layer="svg6386"
     fit-margin-top="0"
     fit-margin-left="0"
     fit-margin-right="0"
     fit-margin-bottom="0">
    <inkscape:grid
       type="xygrid"
       id="grid6989"
       spacingx="200"
       spacingy="200"
       originx="0"
       originy="-682.49998" />
  </sodipodi:namedview>
  <path
     style="opacity:1;fill:#cacaca;fill-opacity:1;fill-rule:nonzero;stroke:#cacaca;stroke-width:1;stroke-miterlimit:4;stroke-dasharray:none;stroke-opacity:1"
     d="M 913.66211,615.26367 C 859.55377,662.6437 805.60547,723.19198 769.50977,775.7168 727.43566,838.2014 691.56116,912.87268 669.61328,983.46094 L 249.06445,873.38281 c -32.04587,104.4565 -48.83647,213.30609 -49.05273,323.74609 360.64779,0 721.29559,0 1081.94338,0 0.1875,-17.7692 2.8644,-34.9831 7.7265,-51.3633 5.4343,-16.9743 16.6557,-40.159 26.4512,-54.9394 9.7454,-14.0828 21.3378,-26.9677 34.4551,-38.3711 12.6117,-10.555 29.6365,-22.3471 44.6641,-29.9707 14.7432,-7.1506 34.0736,-14.5607 50.5585,-18.4629 16.147,-3.5285 36.8797,-6.29884 54.1895,-6.29884 v -94.59375 c -25.774,0 -54.7314,3.69642 -78.7422,8.98242 -24.9055,5.78997 -52.2501,16.02538 -74.4531,26.82812 -22.7418,11.40873 -46.8619,27.89343 -65.8555,43.83594 z"
     id="path1155"
     inkscape:connector-curvature="0"
     sodipodi:nodetypes="ccccccccccccccccc" />
  <path
     style="opacity:1;fill:#f58025;fill-opacity:1;fill-rule:nonzero;stroke:#f58025;stroke-width:1;stroke-miterlimit:4;stroke-dasharray:none;stroke-opacity:1"
     d="M 1496.5371,0.66992188 C 1281.27,5.9910365 1069.7524,56.005705 889.90234,143.06055 L 1258.9531,779.4707 c 156.7256,-69.72803 330.6787,-68.72245 475.6407,-1.02343 L 2102.0762,141.15625 C 1915.6115,49.571486 1707.7579,1.349032 1496.5371,0.66992188 Z"
     id="path1195"
     inkscape:connector-curvature="0"
     sodipodi:nodetypes="cccccc" />
  <path
     style="opacity:1;fill:#777777;fill-opacity:1;fill-rule:nonzero;stroke:#777777;stroke-width:1;stroke-miterlimit:4;stroke-dasharray:none;stroke-opacity:1"
     d="m 2598.9238,567.05664 -513.1308,47.74414 -436.5176,437.53512 c 13.1428,11.4027 26.9997,27.6167 36.7656,41.7051 9.6547,14.543 18.5605,34.1256 23.9961,50.8008 5.0399,16.6553 7.8267,34.1821 8.0176,52.2871 360.0814,0 720.1627,0 1080.2441,0 -1.1774,-111.728 -19.2778,-222.75505 -53.7754,-329.85546 -33.3646,-104.38779 -83.0739,-207.94179 -145.5996,-300.2168 z"
     id="path1235"
     inkscape:connector-curvature="0"
     sodipodi:nodetypes="ccccccccc" />
  <path
     style="opacity:1;fill:#221e20;fill-opacity:1;fill-rule:nonzero;stroke:#f2f2f2;stroke-width:1;stroke-miterlimit:4;stroke-dasharray:none;stroke-opacity:1"
     d="M 798.31636,50.329735 A 1298,1198 0 0 0 528.79878,225.20278 L 820.39839,516.93521 C 874.98714,470.4394 935.4009,430.95376 1000,399.12857 Z"
     id="path1281"
     inkscape:connector-curvature="0" />
  <path
     style="opacity:1;fill:#f2f2f2;fill-opacity:1;fill-rule:nonzero;stroke:#f2f2f2;stroke-width:1;stroke-miterlimit:4;stroke-dasharray:none;stroke-opacity:1"
     d="m 2108.0215,145.62271 -200.3906,347.51758 c 74.833,36.81391 144.0691,83.88885 205.1367,140.24805 46.2135,42.65044 86.6634,89.63027 120.9043,139.90039 L 2595.1172,564.63248 A 1295.2411,1195.2411 0 0 0 2108.0215,145.62271 Z"
     id="path1205"
     inkscape:connector-curvature="0" />
  <path
     style="opacity:1;fill:#221e20;fill-opacity:1;fill-rule:nonzero;stroke:none;stroke-width:4;stroke-miterlimit:4;stroke-dasharray:none;stroke-opacity:1"
     d="M 1617.0159,1199.1285 A 117.01589,117.01589 0 0 1 1500,1316.1444 117.01589,117.01589 0 0 1 1382.9841,1199.1285 117.01589,117.01589 0 0 1 1500,1082.1126 a 117.01589,117.01589 0 0 1 117.0159,117.0159 z"
     id="conductor" />
  <path
     style="fill:none;fill-rule:evenodd;stroke:#221e20;stroke-width:16;stroke-linecap:butt;stroke-linejoin:miter;stroke-miterlimit:4;stroke-dasharray:none;stroke-opacity:1"
     d="M 0,1199.1286 H 3000"
     id="lineStage"
     inkscape:connector-curvature="0" />
  <path
     style="opacity:1;fill:none;fill-opacity:1;fill-rule:nonzero;stroke:#221e20;stroke-width:8;stroke-linejoin:round;stroke-miterlimit:4;stroke-dasharray:none;stroke-opacity:1"
     d="M 1499.0876,400.8157 C 1201.3703,401.20685 928.61369,547.62275 770.84574,780.63425 L 1065.5026,948.0824 c 93.1922,-137.39911 257.8606,-221.72372 433.5584,-221.95383 v 0 z"
     id="path1585"
     inkscape:connector-curvature="0"
     sodipodi:nodetypes="cccccc" />
  <path
     style="opacity:1;fill:none;fill-opacity:1;fill-rule:nonzero;stroke:#221e20;stroke-width:8;stroke-linejoin:round;stroke-miterlimit:4;stroke-dasharray:none;stroke-opacity:1"
     d="m 1499.0876,400.8157 -0.027,325.31287 c 175.6584,0.17566 341.9873,84.32882 435.241,221.64946 L 2231.6797,775.70084 C 2073.8386,543 1796.5583,401.20482 1499.0876,400.8157 Z"
     id="path1303"
     inkscape:connector-curvature="0"
     sodipodi:nodetypes="ccccc" />
  <path
     style="fill:none;fill-rule:evenodd;stroke:#221e20;stroke-width:8;stroke-linecap:butt;stroke-linejoin:round;stroke-miterlimit:4;stroke-dasharray:none;stroke-opacity:1"
     d="M 2231.7904,775.86687 C 2352.6363,706.77945 2475.2094,640.7565 2595.4714,568.37685 2475.3208,390.64633 2302.8256,243.64775 2102.5979,144.95861 L 1902.1283,495.03288"
     id="path1606"
     inkscape:connector-curvature="0"
     sodipodi:nodetypes="cccc" />
</svg>
