<?xml version="1.0" encoding="UTF-8"?>
<svg width="240" height="96" version="1.1" viewBox="0 0 240 96" xml:space="preserve" xmlns="http://www.w3.org/2000/svg"><g transform="matrix(1.3333 0 0 -1.3333 23.774 108.68)"><g transform="matrix(.1 0 0 .1 -17.83 9.5094)"><g fill="#fff"><path d="m11.504 709.11v-122.24h42.141c19.266 0 35.359 5.574 48.23 16.719 12.859 11.172 19.27 25.91 19.27 44.328 0 18.066-6.36 32.754-19.016 44.137-12.656 11.379-29.11 17.054-49.219 17.054zm-11.504 9.063h52.234c26.41 0 46.613-6.535 60.52-19.61 13.965-13.046 20.891-29.921 20.891-50.644 0-20.266-6.875-37.031-20.625-50.266-13.801-13.23-33.391-19.843-58.75-19.843h-54.27v140.36"/><path d="m254 718.18v-9.063h-69.941v-56.144h68.125v-9.141h-68.125v-56.953h71.66v-9.062h-83.172v140.36h81.453"/><path d="m299.94 709.11v-56.66h27.813c12.5 0 21.98 2.5 28.496 7.442 6.504 4.976 9.734 11.953 9.734 20.996 0 8.668-3.23 15.543-9.531 20.625-6.355 5.097-15.469 7.597-27.293 7.597zm-11.503 9.063h41.191c15.73 0 27.812-3.332 36.152-10 8.379-6.582 12.547-15.625 12.547-27.055 0-11.637-4.168-20.808-12.652-27.574-8.442-6.75-20.781-10.137-37.141-10.137h-28.594v-65.597h-11.503v140.36"/><path d="m484.73 635.39-32.183 66.125-32.082-66.125zm-28.953 83.781 69.063-141.36h-12.09l-23.645 48.546h-73.074l-23.535-48.546h-12.09l69.063 141.36h6.308"/><path d="m565.16 709.11v-54.941h24.785c12.61 0 22.247 2.441 28.907 7.187 6.672 4.786 10 11.563 10 20.332 0 8.622-3.379 15.391-10.157 20.215-6.718 4.813-16.457 7.207-29.16 7.207zm-11.621 9.063h38.34c16.035 0 28.281-3.254 36.77-9.785 8.484-6.543 12.703-15.371 12.703-26.465 0-16.25-9.473-27.629-28.438-34.192 4.949-2.214 11.563-9.343 19.903-21.375l33.796-48.546h-13.64l-26.043 38.464c-8.703 12.836-15.473 20.911-20.317 24.067-4.839 3.203-11.98 4.785-21.25 4.785h-20.203v-67.316h-11.621v140.36"/><path d="m790.83 718.18v-9.063h-55.984v-131.3h-11.668v131.3h-56.047v9.063h123.7"/><path d="m888.07 652.97 56.778 65.207h11.719v-140.36h-11.719v124.48l-56.778-65.606-57.082 65.606v-124.48h-11.511v140.36h11.562l57.031-65.207"/><path d="m1084.2 718.18v-9.063h-69.84v-56.144h68.07v-9.141h-68.07v-56.953h71.62v-9.062h-83.19v140.36h81.41"/><path d="m1253.3 718.18v-140.36h-9.48l-113.59 122.68v-122.68h-11.57v140.36h9.8l113.33-122.66v122.66h11.51"/><path d="m1405.7 718.18v-9.063h-56.09v-131.3h-11.61v131.3h-55.99v9.063h123.69"/><path d="m1606.2 586.05c18.55 0 34.28 6.016 47.03 17.937 12.77 11.985 19.22 26.594 19.22 43.938 0 17.441-6.45 32.129-19.22 44.062-12.75 11.973-28.48 17.969-47.03 17.969-18.64 0-34.47-5.996-47.39-17.969-12.92-11.933-19.38-26.621-19.38-44.062 0-17.344 6.46-31.953 19.38-43.938 12.92-11.921 28.75-17.937 47.39-17.937zm-0.52 133.95c22.14 0 40.83-7 56.21-20.984 15.36-13.965 23.01-30.996 23.01-51.094 0-20-7.65-36.984-23.01-50.942-15.38-13.96-34.07-20.996-56.21-20.996-21.92 0-40.62 7.036-55.83 20.996-15.31 13.958-23.02 30.942-23.02 50.942 0 20.098 7.71 37.129 23.02 51.094 15.21 13.984 33.91 20.984 55.83 20.984"/><path d="m1800 718.18v-9.063h-65.31v-53.332h58.85v-9.062h-58.85v-68.906h-11.56v140.36h76.87"/><path d="m239 363.59 20.996 37.004"/><path d="m179.47 400.6 20.937-37.004"/><path d="m264.06 407.81 20.988 36.984"/><path d="m154.53 444.8 20.879-36.984"/><path d="m325.78 356.41v-36.98h114.06v36.98h-114.06"/><path d="m103.38 535.31h-103.38v-83.309h150.47l-47.09 83.309"/><path d="m325.78 184.69h114.06v83.308h-114.06v-83.308"/><path d="m325.78 312.19v-36.985h114.06v36.985h-114.06"/><path d="m110.78 356.41h-110.78v-36.98h110.78v36.98"/><path d="m301.66 319.43 21.985 36.98h-88.75l-15.266-26.875-15.156 26.875h-91.563l22.031-36.98h166.72"/><path d="m213.91 186.67h9.004l48.281 81.324h-105.67l48.386-81.324"/><path d="m0 184.69h110.78v83.308h-110.78v-83.308"/><path d="m439.84 400.6h-179.84l-20.996-37.004h200.84v37.004"/><path d="m110.78 312.19h-110.78v-36.985h110.78v36.985"/><path d="m154.53 444.8h-154.53v-36.984h175.41l-20.879 36.984"/><path d="m439.84 407.81v36.984h-154.79l-20.988-36.984h175.78"/><path d="m179.47 400.6h-179.47v-37.004h200.41l-20.937 37.004"/><path d="m139.22 312.19 22.031-36.985h114.22l21.972 36.985h-158.22"/><path d="m439.84 535.31h-103.39l-47.293-83.309h150.68v83.309"/><path d="m601.45 407.81v36.984h-113.75v-36.984h113.75"/><path d="m772.81 363.59h114.32v37.004h-114v-29.707c0-2.532-0.215-4.844-0.312-7.297"/><path d="m887.13 537.6h-114v-85.601h114v85.601"/><path d="m761.45 312.19c-7.078-14.168-16.824-24.715-29.265-31.36-4.329-2.312-8.907-4.082-13.653-5.625h154.22c5.422 11.203 9.219 23.52 11.562 36.985h-122.86"/><path d="m518.22 249.17c20.422-24.277 45.73-41.469 75.996-51.594 30.312-10.129 61.457-15.183 93.484-15.183 22.922 0 45.832 2.71 68.906 8.125 22.969 5.371 44.426 14.214 64.375 26.558 19.895 12.27 35.942 29.043 48.02 50.219 0.156 0.203 0.215 0.469 0.312 0.699h-363.96c3.704-6.695 7.969-12.969 12.864-18.824"/><path d="m887.13 356.41h-114.58c-1.047-14.172-3.801-26.406-7.973-36.98h120.94c0.984 7.871 1.609 15.996 1.609 24.637v12.343"/><path d="m487.7 356.41v-12.343c0-8.594 0.578-16.766 1.567-24.637h120.89c-4.218 10.601-6.98 22.84-8.078 36.98h-114.38"/><path d="m601.45 537.6h-113.75v-85.601h113.75v85.601"/><path d="m887.13 407.81v36.984h-114v-36.984h114"/><path d="m601.82 363.59c-0.156 2.605-0.363 5.078-0.363 7.761v29.243h-113.75v-37.004h114.11"/><path d="m613.28 312.19h-122.92c2.239-13.411 6.094-25.735 11.411-36.985h154.38c-4.844 1.567-9.536 3.36-13.911 5.735-12.234 6.667-21.824 17.187-28.953 31.25"/><path d="m944 275.2h36.199c-11.98 5.473-24.012 11.621-36.199 18.625v-18.625"/><path d="m977.86 363.59h197.97c-3.7 2.551-7.5 5.051-11.61 7.39-15.37 8.887-35.42 18.782-59.64 29.614h-156.1c1.985-4.477 4.27-8.828 7.082-12.895 6.25-9.031 13.75-16.973 22.293-24.109"/><path d="m1203.8 444.8h-28.55c10.06-5.188 19.64-10.688 28.55-16.594v16.594"/><path d="m945.72 407.81h142.87c-13.18 6.093-22.81 11.375-28.38 15.832-6.36 5.027-9.54 11.011-9.54 17.964 0 1.094 0.21 2.141 0.37 3.188h-109.9c-0.11-2.094-0.422-4.121-0.422-6.25 0-11.125 1.777-21.313 5-30.734"/><path d="m1097.5 264.61c-5.73-5.964-18.34-8.984-37.76-8.984-21.15 0-40.94 3.645-59.38 10.891-1.2 0.464-2.34 1.011-3.544 1.48h-52.812v-60.183c20.371-8.235 39.949-14.485 58.746-18.704 18.86-4.214 33.97-6.812 45.32-7.703 11.4-0.968 20.99-1.406 28.81-1.406 28.01 0 52.86 4.27 74.53 12.766 21.61 8.535 38.48 20.781 50.56 36.812 8.55 11.313 13.91 24.172 16.41 38.418h-118.02c-0.89-1.121-1.77-2.242-2.86-3.387"/><path d="m1060.2 460.31c6.4 5.046 16.67 7.609 30.83 7.609 21.67 0 41.98-4.067 61.04-12.168 2.81-1.191 5.52-2.5 8.28-3.75h43.44v58.387c-4.38 2.707-12.39 6.433-24.01 11.14-11.72 4.746-26.46 8.989-44.38 12.766-17.91 3.801-37.44 5.703-58.53 5.703-29.64 0-54.75-4.531-75.32-13.645-20.525-9.121-35.837-21.304-45.837-36.558-7.547-11.567-12.239-24.145-14.063-37.793h111.51c1.62 3.047 3.91 5.84 7.04 8.309"/><path d="m1185.3 356.41h-198.02c2.188-1.511 4.324-3.078 6.668-4.48 15.627-9.555 33.797-18.379 54.537-26.488 5.51-2.032 10.51-4.032 15.26-6.012h150.41c-2.34 5.918-5.16 11.543-8.91 16.543-5.46 7.285-12.18 14.082-19.94 20.437"/><path d="m1216.8 312.19h-137.45c4.48-2.293 8.65-4.583 12.03-6.829 9.84-6.504 14.69-14.468 14.69-23.906 0-2.027-0.52-4.109-1.41-6.25h114.69c0.42 3.703 0.84 7.402 0.84 11.313 0 9.312-1.2 17.808-3.39 25.672"/><path d="m1265.6 184.69h114.06v83.308h-114.06v-83.308"/><path d="m1379.6 407.81v36.984h-114.06v-36.984h114.06"/><path d="m1265.6 363.59h114.06v37.004h-114.06v-37.004"/><path d="m1379.6 535.31h-114.06v-83.309h114.06v83.309"/><path d="m1265.6 319.43h114.06v36.98h-114.06v-36.98"/><path d="m1265.6 312.19v-36.985h114.06v36.985h-114.06"/><path d="m1614.4 444.8h-157.65c-0.99-1.801-2.14-3.496-3.08-5.344-4.84-9.812-8.48-20.437-11.25-31.64h125.84c0.78 1.14 1.35 2.316 2.24 3.437 11.14 14.402 25.83 25.52 43.9 33.547"/><path d="m1678.2 458.02c18.55 0 35.27-2.004 50.16-6.016h69.95v61.434c-54.37 17.707-103.08 26.562-145.99 26.562-28.75 0-56.04-3.562-81.98-10.75-25.94-7.172-49.06-18.266-69.32-33.266-16.41-12.129-29.63-26.875-40.16-43.98h173.54c13.91 3.934 28.49 6.016 43.8 6.016"/><path d="m1798.3 420.34v24.453h-49.53c16.3-6.723 32.81-14.848 49.53-24.453"/><path d="m1451.1 287.66c1.88-4.297 4.07-8.386 6.3-12.453h152.55c-17.7 8.625-31.61 20.156-41.61 34.719-0.52 0.754-0.89 1.531-1.36 2.266h-124.06c2.19-8.411 4.8-16.668 8.18-24.532"/><path d="m1724.1 267.89c-16.36-4.114-33.75-6.203-52.14-6.203-15.56 0-30 2.218-43.38 6.308h-166.98c8.64-13.98 19.38-26.695 32.61-38.047 19.22-16.433 41.82-28.886 67.97-37.32 26.09-8.41 55.56-12.629 88.53-12.629 17.82 0 35.06 0.969 51.72 2.922 16.62 1.922 33.13 5.176 49.48 9.707 16.41 4.59 32.4 10.652 48.08 18.23v57.137h-75.58c-0.1-0.027-0.2-0.074-0.31-0.105"/><path d="m1436.9 363.59h116.46c0.73 13.515 4.01 25.886 10.16 37.004h-122.87c-2.34-11.582-3.54-23.957-3.75-37.004"/><path d="m1441.1 319.43h121.62c-6.05 11.465-9.17 23.804-9.49 36.98h-116.3c0.27-12.859 1.62-25.207 4.17-36.98"/><path d="m1800 299.66c-11.87-6.922-23.34-12.886-34.59-17.968-4.94-2.262-10.57-4.422-16.61-6.485h51.2v24.453"/></g><g fill="#f58025"><path d="m112.19 54.641-21.719 51.25-21.934-51.25zm68.125-52.816h-45.782l-12.09 28.488h-64.375l-12.285-28.488h-45.781l65.52 140.25h49.422l65.372-140.25"/><path d="m317.13 108h-54.316v-106.17h-44.59v106.17h-54.317v34.082h153.22v-34.082"/><path d="m515.47 97.766c0 6.6604-2.09 11.265-6.25 13.718-4.168 2.469-11.621 3.719-22.403 3.719h-9.421v-33.797h9.636c7.395 0 13.125 0.4179 17.129 1.3281 3.965 0.8125 6.824 2.4531 8.653 4.8164 1.765 2.3437 2.656 5.8086 2.656 10.215zm45.566 0.2539c0-5.2382-0.984-10.332-2.859-15.254-1.875-5-4.953-9.6406-9.172-13.91-4.16-4.2149-9.844-7.711-17.031-10.371-7.129-2.7305-15.567-4.0313-25.254-4.0313h-29.324v-52.629h-44.692v140.25h74.016c9.687 0 18.125-1.348 25.254-4.058 7.187-2.661 12.871-6.196 17.031-10.493 4.219-4.324 7.297-8.98 9.172-14.121 1.875-5.015 2.859-10.176 2.859-15.386"/><path d="m660.41 97.766c0 6.4804-2.285 10.984-6.719 13.562-4.531 2.578-11.816 3.875-21.972 3.875h-9.375v-33.797h9.582c10.933 0 18.387 1.1445 22.449 3.3906 4.004 2.2344 6.035 6.5586 6.035 12.969zm60.735-95.941h-48.02l-11.672 24.863c-4.265 9.1406-8.125 15.812-11.512 20.082-3.437 4.1211-6.765 6.875-10.046 8.043-3.235 1.1719-7.395 1.8281-12.551 1.8281h-5v-54.816h-44.746v140.25h76.093c12.188 0 22.293-2.39 30.157-7.078 7.812-4.719 13.437-10.422 16.933-17.187 3.438-6.75 5.203-13.204 5.203-19.219 0-7.0782-1.511-13.074-4.324-18.02-2.969-4.8711-5.984-8.4336-9.16-10.625-3.23-2.2461-6.824-4.375-10.84-6.4023 4.793-2.6094 8.75-5.7656 11.824-9.3281 3.079-3.6446 7.344-10.938 12.707-21.922l14.954-30.473"/><path d="m780.25 1.8242h-44.688v140.25h44.688v-140.25"/><path d="m972.7 1.8242h-39.793l-76.875 78.125v-78.125h-44.265v140.25h39.683l76.672-77.73v77.73h44.578v-140.25"/><path d="m1137.2 12.344c-6.2-3.0196-12.45-5.4415-18.91-7.293-6.36-1.7695-12.81-3.0703-19.37-3.8281-6.57-0.83204-13.29-1.2227-20.27-1.2227-12.97 0-24.47 1.6875-34.69 5.0508-10.25 3.3555-19.11 8.3555-26.61 14.949-7.6 6.6094-13.17 14.27-16.92 23.074-3.751 8.75-5.685 18.441-5.685 29.035 0 12.031 2.293 22.625 6.675 31.692 4.37 9.043 10.62 16.621 18.54 22.605 7.91 5.989 16.97 10.418 27.19 13.25 10.1 2.949 20.88 4.36 32.13 4.36 16.82 0 35.89-3.594 57.18-10.657v-37.187c-7.28 4.3241-14.58 7.8591-21.71 10.808-7.24 2.817-15.63 4.27-25.37 4.27-8.54 0-16.61-1.609-24.11-4.844-7.5-3.281-13.54-7.9216-18.07-13.906-4.58-5.9844-6.88-13.047-6.88-21.047 0-7.1054 2.03-13.531 6.05-19.473 3.95-5.9336 9.47-10.602 16.61-14.121 7.08-3.4063 15.11-5.125 24.01-5.125 7.24 0 14.01 0.8125 20.41 2.4687 6.41 1.6446 11.88 3.4961 16.2 5.4727 4.38 2.0273 8.91 4.4297 13.6 7.1836v-35.516"/><path d="m1275.6 1.8242h-111.78v140.25h110v-28.125h-65.26v-25.722h62.24v-28.203h-62.24v-29.976h67.04v-28.227"/><path d="m1440.8 108h-54.27v-106.17h-44.64v106.17h-54.32v34.082h153.23v-34.082"/><path d="m1571.1 72.109c0 5.2344-0.83 10.047-2.45 14.375-1.61 4.3437-4.11 8.0937-7.44 11.375-3.34 3.1876-7.34 5.6246-12.09 7.4536-4.84 1.765-10.36 2.683-16.61 2.683-11.92 0-21.41-3.355-28.23-9.9218-6.88-6.5898-10.26-15.309-10.26-25.965 0-10.781 3.38-19.504 10.26-26.094 6.87-6.6679 16.35-10 28.23-10 8.17 0 15.16 1.5899 20.99 4.6367 5.73 3.0977 10.1 7.2852 13.18 12.707 2.97 5.4961 4.42 11.691 4.42 18.75zm45.58 0c0-13.156-3.23-25.156-9.59-36.141-6.3-11.02-15.88-19.77-28.49-26.234-12.65-6.4531-28.01-9.7344-46.09-9.7344-18.33 0-33.8 3.3906-46.56 10.188-12.66 6.7383-22.08 15.543-28.24 26.582-6.14 10.965-9.26 22.711-9.26 35.34 0 12.547 3.01 24.344 9.22 35.313 6.14 10.969 15.57 19.812 28.23 26.516 12.75 6.687 28.28 10.078 46.61 10.078 13.7 0 25.94-1.938 36.61-5.813 10.78-3.777 19.53-9.031 26.51-15.574 6.93-6.613 12.14-14.27 15.68-23.02 3.54-8.6719 5.37-17.938 5.37-27.5"/><path d="m1800 1.8242h-39.79l-76.93 78.125v-78.125h-44.22v140.25h39.63l76.72-77.73v77.73h44.59v-140.25"/></g></g></g></svg>
